<?xml version="1.0" standalone="no"?>
<!DOCTYPE svg PUBLIC "-//W3C//DTD SVG 20010904//EN"
 "http://www.w3.org/TR/2001/REC-SVG-20010904/DTD/svg10.dtd">
<svg version="1.0" xmlns="http://www.w3.org/2000/svg"
 width="500.000000pt" height="500.000000pt" viewBox="0 0 500.000000 500.000000"
 preserveAspectRatio="xMidYMid meet">
<metadata>
Created by potrace 1.14, written by Peter Selinger 2001-2017
</metadata>
<g transform="translate(0.000000,500.000000) scale(0.100000,-0.100000)"
fill="#000000" stroke="none">
<path d="M2367 3364 c-3 -4 -204 -10 -885 -28 -53 -2 -97 -7 -100 -13 -4 -6
-7 -755 -7 -1665 l1 -1653 740 -3 740 -2 -1 895 -2 895 31 1 c17 0 67 2 111 4
44 2 154 6 244 9 96 3 167 10 171 16 3 6 6 60 5 120 -1 61 1 110 4 111 3 0 15
2 26 4 11 2 68 5 127 6 89 1 107 4 110 18 5 23 2 990 -3 995 -5 6 -41 12 -118
21 -30 4 -63 9 -75 11 -12 3 -36 7 -55 9 -18 3 -38 8 -45 12 -6 5 -96 8 -201
8 l-190 0 0 82 c-1 45 -3 84 -6 87 -2 3 -18 7 -34 10 -17 3 -41 8 -54 11 -12
2 -42 7 -65 9 -22 3 -66 10 -96 15 -30 5 -58 7 -62 5 -4 -2 -10 1 -13 6 -5 7
-57 10 -151 9 -80 -2 -146 -4 -147 -5z"/>
</g>
</svg>
